<svg xmlns="http://www.w3.org/2000/svg" viewBox="0 0 64 64" role="img" aria-label="Café de Nice">
  <rect width="64" height="64" rx="14" fill="#1f7a99"/>
  <!-- Ånglinjer -->
  <g stroke="#fbf7ef" stroke-width="2.4" stroke-linecap="round" fill="none" opacity="0.9">
    <path d="M26 16c-2 2-2 4 0 6"/>
    <path d="M32 14c-2 2-2 4 0 6"/>
    <path d="M38 16c-2 2-2 4 0 6"/>
  </g>
  <!-- Kaffekopp -->
  <path d="M16 28h28v6a12 12 0 0 1-12 12h-4a12 12 0 0 1-12-12z" fill="#fbf7ef"/>
  <path d="M44 30h3a5 5 0 0 1 0 10h-3" fill="none" stroke="#fbf7ef" stroke-width="3"/>
  <rect x="18" y="49" width="28" height="3.5" rx="1.75" fill="#c8794b"/>
</svg>
